P2 10 10 255
25 51 76 102 127 153 178 204 229 255 
25 51 76 102 127 153 178 204 229 255 
25 51 76 102 127 153 178 204 229 255 
25 51 76 102 127 153 178 204 229 255 
25 51 76 102 127 153 178 204 229 255 
25 51 76 102 127 153 178 204 229 255 
25 51 76 102 127 153 178 204 229 255 
25 51 76 102 127 153 178 204 229 255 
25 51 76 102 127 153 178 204 229 255 
25 51 76 102 127 153 178 204 229 255 
